v 1.200000 0.000000 -0.600000
v 2.400000 0.000000 -0.600000
v 1.200000 0.000000 0.600000
v 2.400000 0.000000 0.600000
v 1.197077 0.083708 -0.600000
v 2.394154 0.167416 -0.600000
v 1.197077 0.083708 0.600000
v 2.394154 0.167416 0.600000
v 1.188322 0.167008 -0.600000
v 2.376643 0.334015 -0.600000
v 1.188322 0.167008 0.600000
v 2.376643 0.334015 0.600000
v 1.173777 0.249494 -0.600000
v 2.347554 0.498988 -0.600000
v 1.173777 0.249494 0.600000
v 2.347554 0.498988 0.600000
v 1.153514 0.330765 -0.600000
v 2.307028 0.661530 -0.600000
v 1.153514 0.330765 0.600000
v 2.307028 0.661530 0.600000
v 1.127631 0.410424 -0.600000
v 2.255262 0.820848 -0.600000
v 1.127631 0.410424 0.600000
v 2.255262 0.820848 0.600000
v 1.096255 0.488084 -0.600000
v 2.192509 0.976168 -0.600000
v 1.096255 0.488084 0.600000
v 2.192509 0.976168 0.600000
v 1.059537 0.563366 -0.600000
v 2.119074 1.126732 -0.600000
v 1.059537 0.563366 0.600000
v 2.119074 1.126732 0.600000
v 1.017658 0.635903 -0.600000
v 2.035315 1.271806 -0.600000
v 1.017658 0.635903 0.600000
v 2.035315 1.271806 0.600000
v 0.970820 0.705342 -0.600000
v 1.941641 1.410685 -0.600000
v 0.970820 0.705342 0.600000
v 1.941641 1.410685 0.600000
v 0.919253 0.771345 -0.600000
v 1.838507 1.542690 -0.600000
v 0.919253 0.771345 0.600000
v 1.838507 1.542690 0.600000
v 0.863208 0.833590 -0.600000
v 1.726416 1.667180 -0.600000
v 0.863208 0.833590 0.600000
v 1.726416 1.667180 0.600000
v 0.802957 0.891774 -0.600000
v 1.605913 1.783548 -0.600000
v 0.802957 0.891774 0.600000
v 1.605913 1.783548 0.600000
v 0.738794 0.945613 -0.600000
v 1.477588 1.891226 -0.600000
v 0.738794 0.945613 0.600000
v 1.477588 1.891226 0.600000
v 0.671031 0.994845 -0.600000
v 1.342063 1.989690 -0.600000
v 0.671031 0.994845 0.600000
v 1.342063 1.989690 0.600000
v 0.600000 1.039230 -0.600000
v 1.200000 2.078461 -0.600000
v 0.600000 1.039230 0.600000
v 1.200000 2.078461 0.600000
v 0.526045 1.078553 -0.600000
v 1.052091 2.157106 -0.600000
v 0.526045 1.078553 0.600000
v 1.052091 2.157106 0.600000
v 0.449528 1.112621 -0.600000
v 0.899056 2.225241 -0.600000
v 0.449528 1.112621 0.600000
v 0.899056 2.225241 0.600000
v 0.370820 1.141268 -0.600000
v 0.741641 2.282536 -0.600000
v 0.370820 1.141268 0.600000
v 0.741641 2.282536 0.600000
v 0.290306 1.164355 -0.600000
v 0.580613 2.328710 -0.600000
v 0.290306 1.164355 0.600000
v 0.580613 2.328710 0.600000
v 0.208378 1.181769 -0.600000
v 0.416756 2.363539 -0.600000
v 0.208378 1.181769 0.600000
v 0.416756 2.363539 0.600000
v 0.125434 1.193426 -0.600000
v 0.250868 2.386853 -0.600000
v 0.125434 1.193426 0.600000
v 0.250868 2.386853 0.600000
v 0.041879 1.199269 -0.600000
v 0.083759 2.398538 -0.600000
v 0.041879 1.199269 0.600000
v 0.083759 2.398538 0.600000
v -0.041879 1.199269 -0.600000
v -0.083759 2.398538 -0.600000
v -0.041879 1.199269 0.600000
v -0.083759 2.398538 0.600000
v -0.125434 1.193426 -0.600000
v -0.250868 2.386853 -0.600000
v -0.125434 1.193426 0.600000
v -0.250868 2.386853 0.600000
v -0.208378 1.181769 -0.600000
v -0.416756 2.363539 -0.600000
v -0.208378 1.181769 0.600000
v -0.416756 2.363539 0.600000
v -0.290306 1.164355 -0.600000
v -0.580613 2.328710 -0.600000
v -0.290306 1.164355 0.600000
v -0.580613 2.328710 0.600000
v -0.370820 1.141268 -0.600000
v -0.741641 2.282536 -0.600000
v -0.370820 1.141268 0.600000
v -0.741641 2.282536 0.600000
v -0.449528 1.112621 -0.600000
v -0.899056 2.225241 -0.600000
v -0.449528 1.112621 0.600000
v -0.899056 2.225241 0.600000
v -0.526045 1.078553 -0.600000
v -1.052091 2.157106 -0.600000
v -0.526045 1.078553 0.600000
v -1.052091 2.157106 0.600000
v -0.600000 1.039230 -0.600000
v -1.200000 2.078461 -0.600000
v -0.600000 1.039230 0.600000
v -1.200000 2.078461 0.600000
v 1.200000 0.000000 -0.600000
v 2.400000 0.000000 -0.600000
v 2.400000 0.000000 0.600000
v 1.200000 0.000000 0.600000
v -0.600000 1.039230 -0.600000
v -1.200000 2.078461 0.600000
v -1.200000 2.078461 -0.600000
v -0.600000 1.039230 0.600000
f 1 6 2
f 1 5 6
f 7 8 4
f 7 4 3
f 2 4 8
f 2 8 6
f 5 7 3
f 5 3 1
f 5 10 6
f 5 9 10
f 11 12 8
f 11 8 7
f 6 8 12
f 6 12 10
f 9 11 7
f 9 7 5
f 9 14 10
f 9 13 14
f 15 16 12
f 15 12 11
f 10 12 16
f 10 16 14
f 13 15 11
f 13 11 9
f 13 18 14
f 13 17 18
f 19 20 16
f 19 16 15
f 14 16 20
f 14 20 18
f 17 19 15
f 17 15 13
f 17 22 18
f 17 21 22
f 23 24 20
f 23 20 19
f 18 20 24
f 18 24 22
f 21 23 19
f 21 19 17
f 21 26 22
f 21 25 26
f 27 28 24
f 27 24 23
f 22 24 28
f 22 28 26
f 25 27 23
f 25 23 21
f 25 30 26
f 25 29 30
f 31 32 28
f 31 28 27
f 26 28 32
f 26 32 30
f 29 31 27
f 29 27 25
f 29 34 30
f 29 33 34
f 35 36 32
f 35 32 31
f 30 32 36
f 30 36 34
f 33 35 31
f 33 31 29
f 33 38 34
f 33 37 38
f 39 40 36
f 39 36 35
f 34 36 40
f 34 40 38
f 37 39 35
f 37 35 33
f 37 42 38
f 37 41 42
f 43 44 40
f 43 40 39
f 38 40 44
f 38 44 42
f 41 43 39
f 41 39 37
f 41 46 42
f 41 45 46
f 47 48 44
f 47 44 43
f 42 44 48
f 42 48 46
f 45 47 43
f 45 43 41
f 45 50 46
f 45 49 50
f 51 52 48
f 51 48 47
f 46 48 52
f 46 52 50
f 49 51 47
f 49 47 45
f 49 54 50
f 49 53 54
f 55 56 52
f 55 52 51
f 50 52 56
f 50 56 54
f 53 55 51
f 53 51 49
f 53 58 54
f 53 57 58
f 59 60 56
f 59 56 55
f 54 56 60
f 54 60 58
f 57 59 55
f 57 55 53
f 57 62 58
f 57 61 62
f 63 64 60
f 63 60 59
f 58 60 64
f 58 64 62
f 61 63 59
f 61 59 57
f 61 66 62
f 61 65 66
f 67 68 64
f 67 64 63
f 62 64 68
f 62 68 66
f 65 67 63
f 65 63 61
f 65 70 66
f 65 69 70
f 71 72 68
f 71 68 67
f 66 68 72
f 66 72 70
f 69 71 67
f 69 67 65
f 69 74 70
f 69 73 74
f 75 76 72
f 75 72 71
f 70 72 76
f 70 76 74
f 73 75 71
f 73 71 69
f 73 78 74
f 73 77 78
f 79 80 76
f 79 76 75
f 74 76 80
f 74 80 78
f 77 79 75
f 77 75 73
f 77 82 78
f 77 81 82
f 83 84 80
f 83 80 79
f 78 80 84
f 78 84 82
f 81 83 79
f 81 79 77
f 81 86 82
f 81 85 86
f 87 88 84
f 87 84 83
f 82 84 88
f 82 88 86
f 85 87 83
f 85 83 81
f 85 90 86
f 85 89 90
f 91 92 88
f 91 88 87
f 86 88 92
f 86 92 90
f 89 91 87
f 89 87 85
f 89 94 90
f 89 93 94
f 95 96 92
f 95 92 91
f 90 92 96
f 90 96 94
f 93 95 91
f 93 91 89
f 93 98 94
f 93 97 98
f 99 100 96
f 99 96 95
f 94 96 100
f 94 100 98
f 97 99 95
f 97 95 93
f 97 102 98
f 97 101 102
f 103 104 100
f 103 100 99
f 98 100 104
f 98 104 102
f 101 103 99
f 101 99 97
f 101 106 102
f 101 105 106
f 107 108 104
f 107 104 103
f 102 104 108
f 102 108 106
f 105 107 103
f 105 103 101
f 105 110 106
f 105 109 110
f 111 112 108
f 111 108 107
f 106 108 112
f 106 112 110
f 109 111 107
f 109 107 105
f 109 114 110
f 109 113 114
f 115 116 112
f 115 112 111
f 110 112 116
f 110 116 114
f 113 115 111
f 113 111 109
f 113 118 114
f 113 117 118
f 119 120 116
f 119 116 115
f 114 116 120
f 114 120 118
f 117 119 115
f 117 115 113
f 117 122 118
f 117 121 122
f 123 124 120
f 123 120 119
f 118 120 124
f 118 124 122
f 121 123 119
f 121 119 117
f 125 126 127
f 125 127 128
f 129 130 131
f 129 131 132
